<?xml version="1.0" encoding="UTF-8" standalone="no"?>
<!-- Created with Inkscape (http://www.inkscape.org/) -->

<svg
   version="1.1"
   id="svg1"
   width="173.08"
   height="234.43733"
   viewBox="0 0 173.08 234.43733"
   xmlns="http://www.w3.org/2000/svg"
   xmlns:svg="http://www.w3.org/2000/svg">
  <defs
     id="defs1" />
  <g
     id="g1">
    <path
       id="path1"
       d="M 0,0 113.38724,28.3468 56.69362,85.04042 Z"
       style="fill:none;stroke:#000000;stroke-width:0.79701;stroke-linecap:butt;stroke-linejoin:miter;stroke-miterlimit:10;stroke-dasharray:none;stroke-opacity:1"
       transform="matrix(1.3333333,0,0,-1.3333333,1.328,120.52)" />
    <g
       id="g2"
       aria-label="K&#10;−"
       transform="matrix(1.3333333,0,0,1.3333333,66.794667,199.1)">
      <path
         id="path2"
         d="m 5.0729453,-4.0183594 c -0.011719,-0.035156 -0.058594,-0.1171875 -0.058594,-0.140625 0,-0.011719 0.1875,-0.1523437 0.2929687,-0.234375 l 1.7460938,-1.3476562 c 0.9375,-0.6796875 1.3242187,-0.7265625 1.6171875,-0.75 0.082031,-0.011719 0.1875,-0.023437 0.1875,-0.1992188 0,-0.046875 -0.035156,-0.1171875 -0.1171875,-0.1171875 -0.2109375,0 -0.46875,0.035156 -0.703125,0.035156 -0.3632813,0 -0.75,-0.035156 -1.1015625,-0.035156 -0.070312,0 -0.1992188,0 -0.1992188,0.1992188 0,0.070312 0.058594,0.1054687 0.1289063,0.1171875 0.2109375,0.011719 0.3046875,0.070312 0.3046875,0.2109375 0,0.1757812 -0.2929688,0.3984375 -0.3632813,0.4570312 l -3.8789062,2.9882813 0.796875,-3.1992188 c 0.09375,-0.3632812 0.1054687,-0.4570312 0.8320312,-0.4570312 0.2578125,0 0.3398438,0 0.3398438,-0.1992188 0,-0.09375 -0.082031,-0.1171875 -0.140625,-0.1171875 -0.2695313,0 -0.9960938,0.035156 -1.265625,0.035156 -0.2929688,0 -0.9960938,-0.035156 -1.2890625,-0.035156 -0.070312,0 -0.1992188,0 -0.1992188,0.1992188 0,0.1171875 0.09375,0.1171875 0.2929688,0.1171875 0.1289062,0 0.3046875,0.011719 0.421875,0.011719 0.1640625,0.023437 0.2226562,0.058594 0.2226562,0.1640625 0,0.035156 -0.011719,0.070312 -0.046875,0.1875 L 1.55732,-0.77226533 c -0.09375,0.38671875 -0.1171875,0.46875 -0.90234374,0.46875 -0.1640625,0 -0.28125,0 -0.28125,0.1875 0,0.1171875 0.12890625,0.1171875 0.15234375,0.1171875 0.28125,0 0.98437499,-0.03515625 1.26562499,-0.03515625 0.2109375,0 0.4335938,0.01171875 0.6328125,0.01171875 0.2226563,0 0.4453125,0.0234375 0.65625,0.0234375 0.070312,0 0.1992188,0 0.1992188,-0.19921875 0,-0.10546875 -0.09375,-0.10546875 -0.28125,-0.10546875 -0.375,0 -0.6445313,0 -0.6445313,-0.1875 0,-0.0703125 0.058594,-0.28125 0.082031,-0.43359375 C 2.576851,-1.4402341 2.7057572,-1.9675778 2.8346635,-2.4949216 l 1.4882812,-1.1484375 1.1601563,2.68359377 c 0.1171875,0.2578125 0.1171875,0.28125 0.1171875,0.33984375 0,0.3046875 -0.4335938,0.31640625 -0.515625,0.31640625 -0.1171875,0 -0.2226563,0 -0.2226563,0.19921875 0,0.10546875 0.1171875,0.10546875 0.140625,0.10546875 0.3984375,0 0.8085938,-0.03515625 1.2070313,-0.03515625 0.2226562,0 0.7617187,0.03515625 0.984375,0.03515625 0.046875,0 0.1757812,0 0.1757812,-0.19921875 0,-0.10546875 -0.1054687,-0.10546875 -0.1992187,-0.10546875 -0.4101563,-0.0117188 -0.5390625,-0.10546875 -0.6914063,-0.45703125 z m 0,0"
         style="fill:#0000ff;fill-opacity:1;fill-rule:nonzero;stroke:none" />
      <path
         id="path3"
         d="m 13.65107,-0.075 c 0.105469,0 0.269532,0 0.269532,-0.17578125 0,-0.17578125 -0.152344,-0.17578125 -0.269532,-0.17578125 H 9.4909141 c -0.1054688,0 -0.28125,0 -0.28125,0.17578125 0,0.17578125 0.1640625,0.17578125 0.28125,0.17578125 z m 0,0"
         style="fill:#0000ff;fill-opacity:1;fill-rule:nonzero;stroke:none" />
    </g>
    <g
       id="g3"
       aria-label="K&#10;+"
       transform="matrix(1.3333333,0,0,1.3333333,66.868,32.8)">
      <path
         id="path4"
         d="m 5.0736094,-4.0189453 c -0.011719,-0.035156 -0.058594,-0.1171875 -0.058594,-0.140625 0,-0.011719 0.1875,-0.1523438 0.2929688,-0.234375 l 1.7460937,-1.3476563 c 0.9375,-0.6796875 1.3242188,-0.7265625 1.6171875,-0.75 0.082031,-0.011719 0.1875,-0.023437 0.1875,-0.1992187 0,-0.046875 -0.035156,-0.1171875 -0.1171875,-0.1171875 -0.2109375,0 -0.46875,0.035156 -0.703125,0.035156 -0.3632812,0 -0.75,-0.035156 -1.1015625,-0.035156 -0.070312,0 -0.1992187,0 -0.1992187,0.1992187 0,0.070312 0.058594,0.1054688 0.1289062,0.1171875 0.2109375,0.011719 0.3046875,0.070312 0.3046875,0.2109375 0,0.1757813 -0.2929687,0.3984375 -0.3632812,0.4570313 l -3.8789063,2.9882812 0.796875,-3.1992187 c 0.09375,-0.3632813 0.1054688,-0.4570313 0.8320313,-0.4570313 0.2578125,0 0.3398437,0 0.3398437,-0.1992187 0,-0.09375 -0.082031,-0.1171875 -0.140625,-0.1171875 -0.2695312,0 -0.9960937,0.035156 -1.265625,0.035156 -0.2929687,0 -0.9960937,-0.035156 -1.2890625,-0.035156 -0.070312,0 -0.1992187,0 -0.1992187,0.1992187 0,0.1171875 0.09375,0.1171875 0.2929687,0.1171875 0.1289063,0 0.3046875,0.011719 0.421875,0.011719 0.1640625,0.023437 0.2226563,0.058594 0.2226563,0.1640625 0,0.035156 -0.011719,0.070312 -0.046875,0.1875 l -1.3359375,5.35546874 c -0.09375,0.38671875 -0.1171875,0.46875 -0.90234377,0.46875 -0.1640625,0 -0.28125,0 -0.28125,0.1875 0,0.1171874975 0.12890625,0.1171874975 0.15234375,0.1171874975 0.28125,0 0.98437502,-0.0351562475 1.26562502,-0.0351562475 0.2109375,0 0.4335937,0.01171875 0.6328125,0.01171875 0.2226562,0 0.4453125,0.0234374975 0.65625,0.0234374975 0.070312,0 0.1992187,0 0.1992187,-0.1992187475 0,-0.10546875 -0.09375,-0.10546875 -0.28125,-0.10546875 -0.375,0 -0.6445312,0 -0.6445312,-0.1875 0,-0.0703125 0.058594,-0.28125 0.082031,-0.43359375 0.140625,-0.51562499 0.2695313,-1.04296879 0.3984375,-1.57031249 l 1.4882813,-1.1484375 1.1601562,2.68359374 c 0.1171875,0.2578125 0.1171875,0.28125 0.1171875,0.33984375 0,0.3046875 -0.4335937,0.31640625 -0.515625,0.31640625 -0.1171875,0 -0.2226562,0 -0.2226562,0.19921875 0,0.1054687475 0.1171875,0.1054687475 0.140625,0.1054687475 0.3984375,0 0.8085937,-0.0351562475 1.2070312,-0.0351562475 0.2226563,0 0.7617188,0.0351562475 0.984375,0.0351562475 0.046875,0 0.1757813,0 0.1757813,-0.1992187475 0,-0.10546875 -0.1054688,-0.10546875 -0.1992188,-0.10546875 C 6.761109,-0.31582016 6.6322027,-0.40957011 6.479859,-0.76113261 Z m 0,0"
         style="fill:#000000;fill-opacity:1;fill-rule:nonzero;stroke:none" />
      <path
         id="path5"
         d="m 11.685914,-0.07558594 h 2.144531 c 0.08203,0 0.257813,0 0.257813,-0.17578125 0,-0.17578125 -0.164063,-0.17578125 -0.257813,-0.17578125 H 11.685914 V -2.5599609 c 0,-0.09375 0,-0.2578125 -0.164062,-0.2578125 -0.175782,0 -0.175782,0.1523437 -0.175782,0.2578125 v 2.13281246 H 9.2132578 c -0.09375,0 -0.2578125,0 -0.2578125,0.17578125 0,0.17578125 0.1523438,0.17578125 0.2578125,0.17578125 H 11.34607 V 2.0572266 c 0,0.09375 0,0.2578125 0.175782,0.2578125 0.164062,0 0.164062,-0.1523438 0.164062,-0.2578125 z m 0,0"
         style="fill:#000000;fill-opacity:1;fill-rule:nonzero;stroke:none" />
    </g>
    <path
       id="path6"
       d="M 0,-14.17339 113.38724,14.1734 56.69362,-85.0404 Z"
       style="fill:none;stroke:#0000ff;stroke-width:0.79701;stroke-linecap:butt;stroke-linejoin:miter;stroke-miterlimit:10;stroke-dasharray:none;stroke-opacity:1"
       transform="matrix(1.3333333,0,0,-1.3333333,1.328,120.52)" />
    <path
       id="path7"
       d="M 0,0 113.38724,28.3468"
       style="fill:none;stroke:#ff0000;stroke-width:1.99255;stroke-linecap:butt;stroke-linejoin:miter;stroke-miterlimit:10;stroke-dasharray:2.98883, 2.98883;stroke-dashoffset:0;stroke-opacity:0.5"
       transform="matrix(1.3333333,0,0,-1.3333333,1.328,120.52)" />
    <path
       id="path8"
       d="M 0,-14.17339 113.38724,14.1734"
       style="fill:none;stroke:#ff0000;stroke-width:1.99255;stroke-linecap:butt;stroke-linejoin:miter;stroke-miterlimit:10;stroke-dasharray:2.98883, 2.98883;stroke-dashoffset:0;stroke-opacity:0.5"
       transform="matrix(1.3333333,0,0,-1.3333333,1.328,120.52)" />
    <path
       id="path9"
       d="M 68.03302,17.00824 74.73625,-9.80583"
       style="fill:none;stroke:#000000;stroke-width:0.79701;stroke-linecap:butt;stroke-linejoin:miter;stroke-miterlimit:10;stroke-dasharray:none;stroke-opacity:1"
       transform="matrix(1.3333333,0,0,-1.3333333,1.328,120.52)" />
    <path
       id="path10"
       d="M -1.55415,2.0722 C -1.42464,1.29512 0,0.1295 0.38852,0 0,-0.1295 -1.42464,-1.29512 -1.55415,-2.0722"
       style="fill:none;stroke:#000000;stroke-width:0.6376;stroke-linecap:round;stroke-linejoin:round;stroke-miterlimit:10;stroke-dasharray:none;stroke-opacity:1"
       transform="matrix(0.32333333,1.29352,1.29352,-0.32333333,100.97632,133.59443)" />
    <g
       id="g10"
       aria-label="n&#10;+"
       transform="matrix(1.3333333,0,0,1.3333333,106.16267,135.82)">
      <path
         id="path11"
         d="m 0.87995313,-0.58570313 c -0.0351563,0.15234375 -0.09375,0.375 -0.09375,0.421875 0,0.1875 0.140625,0.26953125 0.29296877,0.26953125 0.1171875,0 0.2929687,-0.0703125 0.3632812,-0.26953125 0.011719,-0.0234375 0.1289063,-0.4921875 0.1875,-0.73828125 L 1.8526094,-1.8044531 c 0.058594,-0.2226563 0.1171875,-0.4335938 0.1757812,-0.6679688 0.035156,-0.1640625 0.1171875,-0.4570312 0.1289063,-0.4921875 0.140625,-0.3164062 0.6679687,-1.21875 1.6171875,-1.21875 0.4453125,0 0.5390625,0.3632813 0.5390625,0.6914063 0,0.6210937 -0.4921875,1.8984375 -0.6445313,2.3320312 -0.09375,0.22265627 -0.1054687,0.33984377 -0.1054687,0.45703127 0,0.46875 0.3515625,0.80859375 0.8203125,0.80859375 0.9375,0 1.3007812,-1.45312502 1.3007812,-1.53515622 0,-0.09375 -0.082031,-0.09375 -0.1171875,-0.09375 -0.09375,0 -0.09375,0.023437 -0.1523437,0.1757812 -0.1992188,0.67968752 -0.5273438,1.24218752 -1.0078125,1.24218752 -0.1757813,0 -0.2460938,-0.10546875 -0.2460938,-0.328125 0,-0.2578125 0.09375,-0.4921875 0.1875,-0.71484372 0.1875,-0.5273438 0.5976563,-1.6171875 0.5976563,-2.1914063 0,-0.6679687 -0.421875,-1.0664062 -1.1367188,-1.0664062 -0.9023437,0 -1.3828125,0.6445312 -1.5585937,0.8671875 -0.046875,-0.5507813 -0.4570313,-0.8671875 -0.9140625,-0.8671875 -0.45703127,0 -0.64453127,0.3867187 -0.75000002,0.5742187 -0.15234375,0.3398438 -0.29296875,0.9257813 -0.29296875,0.9609375 0,0.1054688 0.09375,0.1054688 0.1171875,0.1054688 0.09375,0 0.10546875,-0.011719 0.1640625,-0.234375 0.17578125,-0.703125 0.375,-1.1835938 0.72656247,-1.1835938 0.1992188,0 0.3164063,0.1289063 0.3164063,0.4570313 0,0.2109375 -0.035156,0.3164062 -0.1640625,0.8320312 z m 0,0"
         style="fill:#000000;fill-opacity:1;fill-rule:nonzero;stroke:none" />
      <path
         id="path12"
         d="m 9.2031953,-0.0759375 h 2.1445317 c 0.08203,0 0.257812,0 0.257812,-0.17578125 C 11.605539,-0.4275 11.441477,-0.4275 11.347727,-0.4275 H 9.2031953 v -2.1328125 c 0,-0.09375 0,-0.2578125 -0.1640625,-0.2578125 -0.1757812,0 -0.1757812,0.1523437 -0.1757812,0.2578125 V -0.4275 H 6.7305391 c -0.09375,0 -0.2578125,0 -0.2578125,0.17578125 0,0.17578125 0.1523437,0.17578125 0.2578125,0.17578125 H 8.8633516 V 2.056875 c 0,0.09375 0,0.2578125 0.1757812,0.2578125 0.1640625,0 0.1640625,-0.1523438 0.1640625,-0.2578125 z m 0,0"
         style="fill:#000000;fill-opacity:1;fill-rule:nonzero;stroke:none" />
    </g>
    <path
       id="path13"
       d="M 0,-7.08669 113.38724,21.2601"
       style="fill:none;stroke:#ff0000;stroke-width:1.99255;stroke-linecap:butt;stroke-linejoin:miter;stroke-miterlimit:10;stroke-dasharray:none;stroke-opacity:0.5"
       transform="matrix(1.3333333,0,0,-1.3333333,1.328,120.52)" />
    <path
       id="path14"
       d="m 3.0236563,-3.2351719 h 0.9609375 c 0.75,0 0.8320312,0.1523438 0.8320312,0.4453125 0,0.070312 0,0.1875 -0.070312,0.4921875 -0.023437,0.046875 -0.035156,0.082031 -0.035156,0.1054688 0,0.082031 0.058594,0.1171875 0.1171875,0.1171875 0.1054687,0 0.1054687,-0.023437 0.1523437,-0.2109375 l 0.5507813,-2.15625 c 0.023437,-0.1054688 0.023437,-0.1289063 0.023437,-0.1640625 0,-0.011719 -0.011719,-0.1054688 -0.1171875,-0.1054688 -0.09375,0 -0.1054688,0.046875 -0.1523438,0.2109375 -0.1992187,0.7734375 -0.4335937,0.9492188 -1.2773437,0.9492188 H 3.0939688 L 3.7385,-6.0828281 c 0.082031,-0.3398438 0.09375,-0.3867188 0.5390625,-0.3867188 h 1.3125 c 1.21875,0 1.453125,0.328125 1.453125,1.1015625 0,0.2226563 0,0.2695313 -0.035156,0.5390625 -0.011719,0.1289063 -0.011719,0.140625 -0.011719,0.1757813 0,0.046875 0.023437,0.1171875 0.1171875,0.1171875 0.1054688,0 0.1171875,-0.058594 0.140625,-0.2460938 L 7.4533438,-6.5047031 C 7.4767813,-6.7742344 7.4299063,-6.7742344 7.1838125,-6.7742344 H 2.2970938 c -0.1992188,0 -0.2929688,0 -0.2929688,0.1992188 0,0.1054687 0.09375,0.1054687 0.28125,0.1054687 0.3632813,0 0.6445313,0 0.6445313,0.1875 0,0.035156 0,0.058594 -0.046875,0.234375 l -1.3242188,5.27343752 c -0.09375,0.38671875 -0.1171875,0.46875 -0.90234375,0.46875 -0.1640625,0 -0.28125,0 -0.28125,0.1875 0,0.117187505 0.12890625,0.117187505 0.15234375,0.117187505 0.29296875,0 1.03125,-0.035156255 1.3125,-0.035156255 0.328125,0 1.1601563,0.035156255 1.4882813,0.035156255 0.09375,0 0.2109375,0 0.2109375,-0.187500005 0,-0.0820313 -0.058594,-0.10546875 -0.058594,-0.1171875 -0.035156,0 -0.058594,0 -0.28125,0 -0.2226562,0 -0.2695312,0 -0.515625,-0.0234375 -0.2929687,-0.0351563 -0.328125,-0.0703125 -0.328125,-0.19921875 0,-0.0234375 0,-0.0820313 0.046875,-0.234375 z m 0,0"
       style="fill:#ff0000;fill-opacity:1;fill-rule:nonzero;stroke:none"
       aria-label="F"
       transform="matrix(1.3333333,0,0,1.3333333,158.26533,96.712)" />
    <path
       id="path15"
       d="M 56.69362,7.0867 50.05121,33.65916"
       style="fill:none;stroke:#ff0000;stroke-width:1.19553;stroke-linecap:butt;stroke-linejoin:miter;stroke-miterlimit:10;stroke-dasharray:none;stroke-opacity:0.5"
       transform="matrix(1.3333333,0,0,-1.3333333,1.328,120.52)" />
    <path
       id="path16"
       d="M -1.91284,2.55046 C -1.75343,1.59402 0,0.15938 0.4782,0 0,-0.15938 -1.75343,-1.59402 -1.91284,-2.55046"
       style="fill:none;stroke:#ff0000;stroke-width:0.9564;stroke-linecap:round;stroke-linejoin:round;stroke-miterlimit:10;stroke-dasharray:none;stroke-opacity:0.5"
       transform="matrix(-0.32333333,-1.29352,-1.29352,0.32333333,68.062947,75.64112)" />
    <g
       id="g16"
       aria-label="n&#10;F"
       transform="matrix(1.3333333,0,0,1.3333333,72.977333,76.268)">
      <path
         id="path17"
         d="m 0.87832812,-0.58478906 c -0.0351563,0.15234375 -0.09375,0.375 -0.09375,0.421875 0,0.1875 0.140625,0.26953125 0.29296878,0.26953125 0.1171875,0 0.2929687,-0.0703125 0.3632812,-0.26953125 0.011719,-0.0234375 0.1289063,-0.4921875 0.1875,-0.73828125 L 1.8509844,-1.8035391 c 0.058594,-0.2226562 0.1171875,-0.4335937 0.1757812,-0.6679687 0.035156,-0.1640625 0.1171875,-0.4570313 0.1289063,-0.4921875 0.140625,-0.3164063 0.6679687,-1.21875 1.6171875,-1.21875 0.4453125,0 0.5390625,0.3632812 0.5390625,0.6914062 0,0.6210938 -0.4921875,1.8984375 -0.6445313,2.3320313 -0.09375,0.22265624 -0.1054687,0.33984374 -0.1054687,0.45703124 0,0.46875 0.3515625,0.80859375 0.8203125,0.80859375 0.9375,0 1.3007812,-1.45312499 1.3007812,-1.53515629 0,-0.09375 -0.082031,-0.09375 -0.1171875,-0.09375 -0.09375,0 -0.09375,0.023437 -0.1523437,0.1757813 -0.1992188,0.67968749 -0.5273438,1.24218749 -1.0078125,1.24218749 -0.1757813,0 -0.2460938,-0.10546875 -0.2460938,-0.328125 0,-0.2578125 0.09375,-0.4921875 0.1875,-0.71484379 0.1875,-0.5273437 0.5976563,-1.6171875 0.5976563,-2.1914062 0,-0.6679688 -0.421875,-1.0664063 -1.1367188,-1.0664063 -0.9023437,0 -1.3828125,0.6445313 -1.5585937,0.8671875 -0.046875,-0.5507812 -0.4570313,-0.8671875 -0.9140625,-0.8671875 -0.45703128,0 -0.64453128,0.3867188 -0.75000003,0.5742188 -0.15234375,0.3398437 -0.29296875,0.9257812 -0.29296875,0.9609375 0,0.1054687 0.09375,0.1054687 0.1171875,0.1054687 0.09375,0 0.10546875,-0.011719 0.1640625,-0.234375 0.17578125,-0.703125 0.375,-1.1835937 0.72656248,-1.1835937 0.1992188,0 0.3164063,0.1289062 0.3164063,0.4570312 0,0.2109375 -0.035156,0.3164063 -0.1640625,0.8320313 z m 0,0"
         style="fill:#ff0000;fill-opacity:1;fill-rule:nonzero;stroke:none" />
      <path
         id="path18"
         d="m 8.3578203,-0.75471094 h 0.75 c 0.5273438,0 0.6210938,0.09375 0.6210938,0.31640625 0,0.10546875 0,0.1171875 -0.046875,0.31640625 -0.011719,0.046875 -0.023437,0.05859375 -0.023437,0.08203125 0,0.0703125 0.046875,0.10546875 0.1171875,0.10546875 0.09375,0 0.1054687,-0.03515625 0.140625,-0.1640625 L 10.291414,-1.5750234 c 0,-0.023437 0.02344,-0.1289063 0.02344,-0.140625 0,-0.070312 -0.04687,-0.1054688 -0.117188,-0.1054688 -0.09375,0 -0.105469,0.046875 -0.140625,0.1757813 -0.1406249,0.5390625 -0.3398437,0.6445312 -0.9374999,0.6445312 H 8.4281328 l 0.4335938,-1.7460937 c 0.058594,-0.2226563 0.070312,-0.2460938 0.3632812,-0.2460938 h 1.0664062 c 0.925781,0 1.101563,0.2226563 1.101563,0.8085938 0,0.2226562 -0.03516,0.375 -0.03516,0.4335937 0,0.046875 0.02344,0.1171875 0.117188,0.1171875 0.105469,0 0.117187,-0.070312 0.128906,-0.1875 l 0.128906,-1.2070312 c 0.02344,-0.2109375 -0.03516,-0.2109375 -0.199218,-0.2109375 H 7.8070391 c -0.1289063,0 -0.2226563,0 -0.2226563,0.1523437 0,0.09375 0.082031,0.09375 0.2226563,0.09375 0,0 0.140625,0 0.2695312,0.023437 0.140625,0.011719 0.1523438,0.023437 0.1523438,0.09375 0,0.046875 -0.023437,0.1171875 -0.023437,0.1523438 L 7.2914141,0.92107031 C 7.2211016,1.1906016 7.2093828,1.2491953 6.6703203,1.2491953 c -0.1171875,0 -0.2109375,0 -0.2109375,0.140625 0,0.070312 0.046875,0.1054688 0.1171875,0.1054688 0.1992188,0 0.7148438,-0.023437 0.9140625,-0.023437 h 0.5390625 c 0.1757813,0 0.375,0.023437 0.5507813,0.023437 0.046875,0 0.1523437,0 0.1523437,-0.1523438 0,-0.09375 -0.082031,-0.09375 -0.2460937,-0.09375 -0.011719,0 -0.1875,0 -0.3632813,-0.023437 -0.140625,-0.011719 -0.2109375,-0.011719 -0.2109375,-0.1171875 0,-0.023437 0,-0.046875 0.023437,-0.11718749 z m 0,0"
         style="fill:#ff0000;fill-opacity:1;fill-rule:nonzero;stroke:none" />
    </g>
    <path
       id="path19"
       d="M 45.35419,-2.83484 38.65138,23.97923"
       style="fill:none;stroke:#0000ff;stroke-width:0.79701;stroke-linecap:butt;stroke-linejoin:miter;stroke-miterlimit:10;stroke-dasharray:none;stroke-opacity:1"
       transform="matrix(1.3333333,0,0,-1.3333333,1.328,120.52)" />
    <path
       id="path20"
       d="M -1.55415,2.0722 C -1.42464,1.29512 0,0.1295 0.38852,0 0,-0.1295 -1.42464,-1.29512 -1.55415,-2.0722"
       style="fill:none;stroke:#0000ff;stroke-width:0.6376;stroke-linecap:round;stroke-linejoin:round;stroke-miterlimit:10;stroke-dasharray:none;stroke-opacity:1"
       transform="matrix(-0.32333333,-1.29352,-1.29352,0.32333333,52.8632,88.547707)" />
    <g
       id="g20"
       aria-label="n&#10;−"
       transform="matrix(1.3333333,0,0,1.3333333,30.736,88.942667)">
      <path
         id="path21"
         d="m 0.8776875,-0.58688281 c -0.0351563,0.15234375 -0.09375,0.375 -0.09375,0.421875 0,0.1875 0.140625,0.26953125 0.2929688,0.26953125 0.1171875,0 0.2929687,-0.0703125 0.3632812,-0.26953125 0.011719,-0.0234375 0.1289063,-0.4921875 0.1875,-0.73828125 L 1.8503438,-1.8056328 c 0.058594,-0.2226563 0.1171875,-0.4335938 0.1757812,-0.6679688 0.035156,-0.1640625 0.1171875,-0.4570312 0.1289063,-0.4921875 0.140625,-0.3164062 0.6679687,-1.21875 1.6171875,-1.21875 0.4453125,0 0.5390625,0.3632813 0.5390625,0.6914063 0,0.6210937 -0.4921875,1.8984375 -0.6445313,2.3320312 -0.09375,0.22265629 -0.1054687,0.33984379 -0.1054687,0.45703129 0,0.46875 0.3515625,0.80859375 0.8203125,0.80859375 0.9375,0 1.3007812,-1.45312504 1.3007812,-1.53515624 0,-0.09375 -0.082031,-0.09375 -0.1171875,-0.09375 -0.09375,0 -0.09375,0.023437 -0.1523437,0.1757812 -0.1992188,0.67968754 -0.5273438,1.24218754 -1.0078125,1.24218754 -0.1757813,0 -0.2460938,-0.10546875 -0.2460938,-0.328125 0,-0.2578125 0.09375,-0.4921875 0.1875,-0.71484374 0.1875,-0.5273438 0.5976563,-1.6171875 0.5976563,-2.1914063 0,-0.6679687 -0.421875,-1.0664062 -1.1367188,-1.0664062 -0.9023437,0 -1.3828125,0.6445312 -1.5585937,0.8671875 -0.046875,-0.5507813 -0.4570313,-0.8671875 -0.9140625,-0.8671875 -0.4570313,0 -0.6445313,0.3867187 -0.75000005,0.5742187 C 0.432375,-3.4931328 0.29175,-2.9071953 0.29175,-2.8720391 c 0,0.1054688 0.09375,0.1054688 0.1171875,0.1054688 0.09375,0 0.10546875,-0.011719 0.1640625,-0.234375 0.17578125,-0.703125 0.375,-1.1835938 0.7265625,-1.1835938 0.1992188,0 0.3164063,0.1289063 0.3164063,0.4570313 0,0.2109375 -0.035156,0.3164062 -0.1640625,0.8320312 z m 0,0"
         style="fill:#0000ff;fill-opacity:1;fill-rule:nonzero;stroke:none" />
      <path
         id="path22"
         d="m 11.172609,-0.0741875 c 0.105469,0 0.269532,0 0.269532,-0.17578125 0,-0.17578125 -0.152344,-0.17578125 -0.269532,-0.17578125 H 7.0124531 c -0.1054687,0 -0.28125,0 -0.28125,0.17578125 0,0.17578125 0.1640625,0.17578125 0.28125,0.17578125 z m 0,0"
         style="fill:#0000ff;fill-opacity:1;fill-rule:nonzero;stroke:none" />
    </g>
    <path
       id="path23"
       d="m 85.04042,56.6936 19.54366,19.54406"
       style="fill:none;stroke:#000000;stroke-width:0.79701;stroke-linecap:butt;stroke-linejoin:miter;stroke-miterlimit:10;stroke-dasharray:none;stroke-opacity:1"
       transform="matrix(1.3333333,0,0,-1.3333333,1.328,120.52)" />
    <path
       id="path24"
       d="M -1.55415,2.0722 C -1.42464,1.29512 0,0.1295 0.38852,0 0,-0.1295 -1.42464,-1.29512 -1.55415,-2.0722"
       style="fill:none;stroke:#000000;stroke-width:0.6376;stroke-linecap:round;stroke-linejoin:round;stroke-miterlimit:10;stroke-dasharray:none;stroke-opacity:1"
       transform="matrix(0.94277333,-0.9428,-0.9428,-0.94277333,140.77344,18.869813)" />
    <g
       id="g24"
       aria-label="n&#10;+"
       transform="matrix(1.3333333,0,0,1.3333333,133.04267,10.146667)">
      <path
         id="path25"
         d="m 0.87913281,-0.58460938 c -0.0351563,0.15234375 -0.09375,0.375 -0.09375,0.421875 0,0.1875 0.140625,0.26953125 0.29296879,0.26953125 0.1171875,0 0.2929687,-0.0703125 0.3632812,-0.26953125 0.011719,-0.0234375 0.1289063,-0.4921875 0.1875,-0.73828125 L 1.8517891,-1.8033594 c 0.058594,-0.2226562 0.1171875,-0.4335937 0.1757812,-0.6679687 0.035156,-0.1640625 0.1171875,-0.4570313 0.1289063,-0.4921875 0.140625,-0.3164063 0.6679687,-1.21875 1.6171875,-1.21875 0.4453125,0 0.5390625,0.3632812 0.5390625,0.6914062 0,0.6210938 -0.4921875,1.8984375 -0.6445313,2.3320313 -0.09375,0.22265622 -0.1054687,0.33984372 -0.1054687,0.45703122 0,0.46875 0.3515625,0.80859375 0.8203125,0.80859375 0.9375,0 1.3007812,-1.45312497 1.3007812,-1.53515627 0,-0.09375 -0.082031,-0.09375 -0.1171875,-0.09375 -0.09375,0 -0.09375,0.023437 -0.1523437,0.1757813 -0.1992188,0.67968747 -0.5273438,1.24218747 -1.0078125,1.24218747 -0.1757813,0 -0.2460938,-0.10546875 -0.2460938,-0.328125 0,-0.2578125 0.09375,-0.4921875 0.1875,-0.71484377 0.1875,-0.5273437 0.5976563,-1.6171875 0.5976563,-2.1914062 0,-0.6679688 -0.421875,-1.0664063 -1.1367188,-1.0664063 -0.9023437,0 -1.3828125,0.6445313 -1.5585937,0.8671875 -0.046875,-0.5507812 -0.4570313,-0.8671875 -0.9140625,-0.8671875 -0.45703129,0 -0.64453129,0.3867188 -0.75000004,0.5742188 -0.15234375,0.3398437 -0.29296875,0.9257812 -0.29296875,0.9609375 0,0.1054687 0.09375,0.1054687 0.1171875,0.1054687 0.09375,0 0.10546875,-0.011719 0.1640625,-0.234375 0.17578125,-0.703125 0.375,-1.1835937 0.72656249,-1.1835937 0.1992188,0 0.3164063,0.1289062 0.3164063,0.4570312 0,0.2109375 -0.035156,0.3164063 -0.1640625,0.8320313 z m 0,0"
         style="fill:#000000;fill-opacity:1;fill-rule:nonzero;stroke:none" />
      <path
         id="path26"
         d="m 9.202375,-0.07777344 h 2.144531 c 0.08203,0 0.257813,0 0.257813,-0.17578125 0,-0.17578125 -0.164063,-0.17578125 -0.257813,-0.17578125 H 9.202375 V -2.5621484 c 0,-0.09375 0,-0.2578125 -0.1640625,-0.2578125 -0.1757812,0 -0.1757812,0.1523437 -0.1757812,0.2578125 v 2.13281246 H 6.7297188 c -0.09375,0 -0.2578125,0 -0.2578125,0.17578125 0,0.17578125 0.1523437,0.17578125 0.2578125,0.17578125 H 8.8625313 V 2.0550391 c 0,0.09375 0,0.2578125 0.1757812,0.2578125 0.1640625,0 0.1640625,-0.1523438 0.1640625,-0.2578125 z m 0,0"
         style="fill:#000000;fill-opacity:1;fill-rule:nonzero;stroke:none" />
    </g>
    <path
       id="path27"
       d="m 85.04042,-35.43349 23.99643,-13.71219"
       style="fill:none;stroke:#0000ff;stroke-width:0.79701;stroke-linecap:butt;stroke-linejoin:miter;stroke-miterlimit:10;stroke-dasharray:none;stroke-opacity:1"
       transform="matrix(1.3333333,0,0,-1.3333333,1.328,120.52)" />
    <path
       id="path28"
       d="M -1.55415,2.0722 C -1.42464,1.29512 0,0.1295 0.38852,0 0,-0.1295 -1.42464,-1.29512 -1.55415,-2.0722"
       style="fill:none;stroke:#0000ff;stroke-width:0.6376;stroke-linecap:round;stroke-linejoin:round;stroke-miterlimit:10;stroke-dasharray:none;stroke-opacity:1"
       transform="matrix(1.1576,0.66148,0.66148,-1.1576,146.71044,186.04757)" />
    <g
       id="g28"
       aria-label="n&#10;−"
       transform="matrix(1.3333333,0,0,1.3333333,139.05733,197.19333)">
      <path
         id="path29"
         d="m 0.87985156,-0.58738281 c -0.0351563,0.15234375 -0.09375,0.375 -0.09375,0.421875 0,0.1875 0.140625,0.26953125 0.29296874,0.26953125 0.1171875,0 0.2929688,-0.0703125 0.3632813,-0.26953125 0.011719,-0.0234375 0.1289062,-0.4921875 0.1875,-0.73828125 L 1.8525078,-1.8061328 c 0.058594,-0.2226563 0.1171875,-0.4335938 0.1757813,-0.6679688 0.035156,-0.1640625 0.1171875,-0.4570312 0.1289062,-0.4921875 0.140625,-0.3164062 0.6679688,-1.21875 1.6171875,-1.21875 0.4453125,0 0.5390625,0.3632813 0.5390625,0.6914063 0,0.6210937 -0.4921875,1.8984375 -0.6445312,2.3320312 -0.09375,0.22265629 -0.1054688,0.33984379 -0.1054688,0.45703129 0,0.46875 0.3515625,0.80859375 0.8203125,0.80859375 0.9375,0 1.3007813,-1.45312504 1.3007813,-1.53515624 0,-0.09375 -0.082031,-0.09375 -0.1171875,-0.09375 -0.09375,0 -0.09375,0.023437 -0.1523438,0.1757812 -0.1992187,0.67968754 -0.5273437,1.24218754 -1.0078125,1.24218754 -0.1757812,0 -0.2460937,-0.10546875 -0.2460937,-0.328125 0,-0.2578125 0.09375,-0.4921875 0.1875,-0.71484374 0.1875,-0.5273438 0.5976562,-1.6171875 0.5976562,-2.1914063 0,-0.6679687 -0.421875,-1.0664062 -1.1367187,-1.0664062 -0.9023438,0 -1.3828125,0.6445312 -1.5585938,0.8671875 -0.046875,-0.5507813 -0.4570312,-0.8671875 -0.9140625,-0.8671875 -0.45703124,0 -0.64453124,0.3867187 -0.74999999,0.5742187 -0.15234375,0.3398438 -0.29296875,0.9257813 -0.29296875,0.9609375 0,0.1054688 0.09375,0.1054688 0.1171875,0.1054688 0.09375,0 0.10546875,-0.011719 0.1640625,-0.234375 0.17578125,-0.703125 0.375,-1.1835938 0.72656254,-1.1835938 0.1992187,0 0.3164062,0.1289063 0.3164062,0.4570313 0,0.2109375 -0.035156,0.3164062 -0.1640625,0.8320312 z m 0,0"
         style="fill:#0000ff;fill-opacity:1;fill-rule:nonzero;stroke:none" />
      <path
         id="path30"
         d="m 11.171844,-0.07761719 c 0.105468,0 0.269531,0 0.269531,-0.17578125 0,-0.17578125 -0.152344,-0.17578125 -0.269531,-0.17578125 H 7.0116875 c -0.1054688,0 -0.28125,0 -0.28125,0.17578125 0,0.17578125 0.1640625,0.17578125 0.28125,0.17578125 z m 0,0"
         style="fill:#0000ff;fill-opacity:1;fill-rule:nonzero;stroke:none" />
    </g>
  </g>
</svg>
